<svg width="25" height="61" viewBox="0 0 25 61" fill="none" xmlns="http://www.w3.org/2000/svg">
<path d="M23.5189 56.4713C24.016 56.2308 24.224 55.6328 23.9834 55.1356L20.0632 47.0343C19.8226 46.5372 19.2246 46.3292 18.7274 46.5697C18.2303 46.8103 18.0223 47.4083 18.2629 47.9055L21.7476 55.1066L14.5464 58.5913C14.0493 58.8319 13.8413 59.4299 14.0818 59.9271C14.3224 60.4242 14.9204 60.6322 15.4176 60.3916L23.5189 56.4713ZM8.41449 0.590917C2.40209 11.0603 0.220702 19.8219 0.405601 27.0975C0.590747 34.3828 3.14678 40.0978 6.46844 44.4646C9.78143 48.8201 13.8488 51.8268 17.0717 53.7415C18.686 54.7005 20.0963 55.3903 21.107 55.8417C21.6126 56.0675 22.0188 56.2341 22.3014 56.3451C22.4427 56.4006 22.5532 56.4422 22.6297 56.4705C22.668 56.4846 22.6978 56.4954 22.7188 56.503C22.7293 56.5067 22.7376 56.5096 22.7436 56.5118C22.7466 56.5128 22.749 56.5137 22.7509 56.5143C22.7518 56.5147 22.7528 56.515 22.7533 56.5152C22.7541 56.5155 22.7548 56.5157 23.0833 55.5712C23.4118 54.6267 23.4122 54.6268 23.4124 54.6269C23.4123 54.6269 23.4125 54.6269 23.4123 54.6269C23.4118 54.6267 23.4109 54.6264 23.4093 54.6258C23.4063 54.6247 23.401 54.6229 23.3935 54.6202C23.3785 54.6148 23.3548 54.6062 23.3227 54.5944C23.2585 54.5707 23.1608 54.5339 23.0326 54.4835C22.7763 54.3828 22.3983 54.2281 21.9227 54.0156C20.9709 53.5905 19.6308 52.9355 18.0932 52.0221C15.0125 50.1918 11.1704 47.3425 8.06027 43.2538C4.95881 39.1765 2.57808 33.8591 2.40496 27.0467C2.23158 20.2245 4.27041 11.8231 10.1488 1.58692L8.41449 0.590917Z" fill="#5C74FF"/>
</svg>
