<svg width="68" height="68" viewBox="0 0 68 68" fill="none" xmlns="http://www.w3.org/2000/svg">
<path d="M68 34C68 52.7777 52.7777 68 34 68C15.2223 68 0 52.7777 0 34C0 15.2223 15.2223 0 34 0C52.7777 0 68 15.2223 68 34Z" fill="white"/>
<path d="M28.2525 58.5V31.9441H23V24.8638H28.2525V21.7913C28.2525 17.739 29.3835 14.5997 31.6454 12.3732C33.9291 10.1244 37.1154 9 41.2043 9C42.5092 9 44.1078 9.22265 46 9.66795L45.9021 17.149C45.1191 16.9486 44.1622 16.8484 43.0312 16.8484C39.4861 16.8484 37.7135 18.5517 37.7135 21.9583V24.8638H44.7277V31.9441H37.7135V58.5H28.2525Z" fill="#26223B"/>
</svg>
